<svg width="81" height="80" viewBox="0 0 81 80" fill="none" xmlns="http://www.w3.org/2000/svg">
<path d="M0.859863 0.0100098H80.8399V80.01H0.859863V0.0100098Z" fill="#F2F2F3"/>
<path d="M80.8399 0.0100098H0.859863V19.77H36.6199C37.9099 19.77 38.9399 18.41 38.9399 16.71V16.26C38.9399 15.22 39.5799 14.36 40.3799 14.36H80.8499V0.0100098H80.8299H80.8399Z" fill="#191919"/>
<path d="M17.8999 6.57996H23.9899V12.67H17.8999V6.57996Z" fill="#FBB03A"/>
<path d="M7.16992 6.57996H13.2599V12.67H7.16992V6.57996Z" fill="#FBB03A"/>
<path d="M28.6499 6.57996H34.7399V12.67H28.6499V6.57996Z" fill="#FBB03A"/>
<path d="M33.1499 54.25H71.4999V59.98H33.1499V54.25Z" fill="#31A8E0"/>
<path d="M33.1499 64.84H60.5399V70.57H33.1499V64.84Z" fill="#31A8E0"/>
<path d="M10.2197 52.91H29.2598V71.95H10.2197V52.91Z" fill="#31A8E0"/>
<path d="M33.1499 29.1899H71.4999V34.9199H33.1499V29.1899Z" fill="#31A8E0"/>
<path d="M33.1499 39.8099H60.5399V45.5399H33.1499V39.8099Z" fill="#31A8E0"/>
<path d="M10.2197 27.85H29.2598V46.89H10.2197V27.85Z" fill="#31A8E0"/>
</svg>
